<?xml version="1.0" standalone="no"?>
<!DOCTYPE svg PUBLIC "-//W3C//DTD SVG 1.1//EN"
"http://www.w3.org/Graphics/SVG/1.1/DTD/svg11.dtd">

<svg width="317" height="288" view_box="0 0 317 288"
xmlns="http://www.w3.org/2000/svg"
xmlns:link="http://www.w3.org/1999/xlink">\n\n<desc>Généré par Mocodo 2.3.7 le Thu, 31 Mar 2022 13:45:17</desc>

<rect id="frame" x="0" y="0" width="317" height="288" fill="#f7f7f7" stroke="none" stroke-width="0"/>

<!-- Association remplit -->
<line x1="54" y1="51" x2="157" y2="51" stroke="#9970ab" stroke-width="2"/>
<text x="98" y="68.0" fill="#1b7837" font-family="Verdana" font-size="12">0,N</text>
<line x1="263" y1="51" x2="157" y2="51" stroke="#9970ab" stroke-width="2"/>
<text x="191" y="43.0" fill="#1b7837" font-family="Verdana" font-size="12">0,N</text>
<line x1="157" y1="152" x2="157" y2="51" stroke="#9970ab" stroke-width="2"/>
<text x="162.0" y="110" fill="#1b7837" font-family="Verdana" font-size="12">0,N</text>
<g id="association-remplit">
	<path d="M 172 26 a 14 14 90 0 1 14 14 V 51 h -58 V 40 a 14 14 90 0 1 14 -14" fill="#c2a5cf" stroke="#c2a5cf" stroke-width="0"/>
	<path d="M 186 51.0 v 11 a 14 14 90 0 1 -14 14 H 142 a 14 14 90 0 1 -14 -14 V 51.0 H 58" fill="#e7d4e8" stroke="#e7d4e8" stroke-width="0"/>
	<rect x="128" y="26" width="58" height="50" fill="none" rx="14" stroke="#9970ab" stroke-width="2"/>
	<line x1="128" y1="51" x2="186" y2="51" stroke="#9970ab" stroke-width="1"/>
	<text x="135" y="43.7" fill="#000000" font-family="Verdana" font-size="12">remplit</text>
</g>

<!-- Association valide -->
<line x1="54" y1="245" x2="157" y2="245" stroke="#9970ab" stroke-width="2"/>
<text x="104" y="262.0" fill="#1b7837" font-family="Verdana" font-size="12">0,N</text>
<line x1="263" y1="51" x2="157" y2="245" stroke="#9970ab" stroke-width="2"/>
<text x="245.166389098" y="102" fill="#1b7837" font-family="Verdana" font-size="12">0,N</text>
<line x1="157" y1="152" x2="157" y2="245" stroke="#9970ab" stroke-width="2"/>
<text x="162.0" y="203" fill="#1b7837" font-family="Verdana" font-size="12">0,N</text>
<g id="association-valide">
	<path d="M 169 220 a 14 14 90 0 1 14 14 V 245 h -52 V 234 a 14 14 90 0 1 14 -14" fill="#c2a5cf" stroke="#c2a5cf" stroke-width="0"/>
	<path d="M 183 245.0 v 11 a 14 14 90 0 1 -14 14 H 145 a 14 14 90 0 1 -14 -14 V 245.0 H 52" fill="#e7d4e8" stroke="#e7d4e8" stroke-width="0"/>
	<rect x="131" y="220" width="52" height="50" fill="none" rx="14" stroke="#9970ab" stroke-width="2"/>
	<line x1="131" y1="245" x2="183" y2="245" stroke="#9970ab" stroke-width="1"/>
	<text x="138" y="237.7" fill="#000000" font-family="Verdana" font-size="12">valide</text>
</g>

<!-- Entity comptable -->
<g id="entity-comptable">
	<g id="frame-comptable">
		<rect x="9" y="211" width="90" height="25" fill="#a6dba0" stroke="#a6dba0" stroke-width="0"/>
		<rect x="9" y="236.0" width="90" height="43" fill="#d9f0d3" stroke="#d9f0d3" stroke-width="0"/>
		<rect x="9" y="211" width="90" height="68" fill="none" stroke="#5aae61" stroke-width="2"/>
		<line x1="9" y1="236" x2="99" y2="236" stroke="#5aae61" stroke-width="1"/>
	</g>
	<text x="22" y="228.7" fill="#000000" font-family="Verdana" font-size="12">comptable</text>
	<text x="14" y="253.8" fill="#000000" font-family="Verdana" font-size="12">id-comptable</text>
	<line x1="14" y1="256" x2="94" y2="256" stroke="#000000" stroke-width="1"/>
	<text x="14" y="270.8" fill="#000000" font-family="Verdana" font-size="12">rôle</text>
</g>

<!-- Entity Employé -->
<g id="entity-Employé">
	<g id="frame-Employé">
		<rect x="15" y="9" width="78" height="25" fill="#a6dba0" stroke="#a6dba0" stroke-width="0"/>
		<rect x="15" y="34.0" width="78" height="59" fill="#d9f0d3" stroke="#d9f0d3" stroke-width="0"/>
		<rect x="15" y="9" width="78" height="84" fill="none" stroke="#5aae61" stroke-width="2"/>
		<line x1="15" y1="34" x2="93" y2="34" stroke="#5aae61" stroke-width="1"/>
	</g>
	<text x="27" y="26.7" fill="#000000" font-family="Verdana" font-size="12">Employé</text>
	<text x="20" y="51.8" fill="#000000" font-family="Verdana" font-size="12">id-employé</text>
	<line x1="20" y1="54" x2="88" y2="54" stroke="#000000" stroke-width="1"/>
	<text x="20" y="68.8" fill="#000000" font-family="Verdana" font-size="12">nom</text>
	<text x="20" y="85.8" fill="#000000" font-family="Verdana" font-size="12">prénom</text>
</g>

<!-- Entity Autres frais -->
<g id="entity-Autres frais">
	<g id="frame-Autres frais">
		<rect x="117" y="118" width="80" height="25" fill="#a6dba0" stroke="#a6dba0" stroke-width="0"/>
		<rect x="117" y="143.0" width="80" height="43" fill="#d9f0d3" stroke="#d9f0d3" stroke-width="0"/>
		<rect x="117" y="118" width="80" height="68" fill="none" stroke="#5aae61" stroke-width="2"/>
		<line x1="117" y1="143" x2="197" y2="143" stroke="#5aae61" stroke-width="1"/>
	</g>
	<text x="122" y="135.7" fill="#000000" font-family="Verdana" font-size="12">Autres frais</text>
	<text x="122" y="160.8" fill="#000000" font-family="Verdana" font-size="12">id-autres</text>
	<line x1="122" y1="163" x2="177" y2="163" stroke="#000000" stroke-width="1"/>
	<text x="122" y="177.8" fill="#000000" font-family="Verdana" font-size="12">libellé</text>
</g>

<!-- Entity fiche de frais -->
<g id="entity-fiche de frais">
	<g id="frame-fiche de frais">
		<rect x="218" y="17" width="90" height="25" fill="#a6dba0" stroke="#a6dba0" stroke-width="0"/>
		<rect x="218" y="42.0" width="90" height="43" fill="#d9f0d3" stroke="#d9f0d3" stroke-width="0"/>
		<rect x="218" y="17" width="90" height="68" fill="none" stroke="#5aae61" stroke-width="2"/>
		<line x1="218" y1="42" x2="308" y2="42" stroke="#5aae61" stroke-width="1"/>
	</g>
	<text x="223" y="34.7" fill="#000000" font-family="Verdana" font-size="12">fiche de frais</text>
	<text x="223" y="59.8" fill="#000000" font-family="Verdana" font-size="12">id-fiche</text>
	<line x1="223" y1="62" x2="269" y2="62" stroke="#000000" stroke-width="1"/>
	<text x="223" y="76.8" fill="#000000" font-family="Verdana" font-size="12">libellé</text>
</g>
</svg>